<?xml version="1.0" encoding="utf-8"?>
<!-- Generator: Adobe Illustrator 21.0.2, SVG Export Plug-In . SVG Version: 6.00 Build 0)  -->
<svg version="1.1" id="Layer_1" xmlns="http://www.w3.org/2000/svg" xmlns:xlink="http://www.w3.org/1999/xlink" x="0px" y="0px"
	 viewBox="0 0 905.3 467.8" style="enable-background:new 0 0 905.3 467.8;" xml:space="preserve">
<style type="text/css">
	.st0{fill:#678976;}
	.st1{fill:#383529;}
	.st2{fill:#CEB889;}
	.st3{fill:#E2E296;}
	.st4{fill:#5FA660;}
	.st5{fill:#0B0A10;}
	.st6{fill:#C26544;}
	.st7{fill:#5F825F;}
	.st8{fill:#0C0B09;}
	.st9{fill:#7C7680;}
	.st10{fill:none;stroke:#E2E296;stroke-width:3;stroke-miterlimit:10;}
	.st11{fill:none;stroke:#E2E296;stroke-width:2;stroke-miterlimit:10;}
	.st12{fill:none;stroke:#E2E296;stroke-miterlimit:10;}
</style>
<rect x="-46.3" y="-23.7" class="st0" width="997.9" height="515.1"/>
<g>
	<ellipse class="st1" cx="460.3" cy="435.4" rx="68.9" ry="3.2"/>
	<ellipse class="st2" cx="406.5" cy="401" rx="6.4" ry="8.7"/>
	<ellipse class="st2" cx="389.9" cy="378.2" rx="6.4" ry="8.7"/>
	<path class="st3" d="M509.5,405.8c0,0-29.3,25.6-49.5-17.8c-20.1-43.4-51.3,1.3-49.5,17.9c1.9,18.2,54.2,48.5,100.6,5.1
		L509.5,405.8z"/>
	<ellipse class="st4" cx="459.1" cy="341.3" rx="28.1" ry="35.4"/>
	<ellipse class="st4" cx="441.5" cy="371.8" rx="28.1" ry="35.4"/>
	<ellipse class="st4" cx="418.6" cy="296.4" rx="56.1" ry="44.9"/>
	<ellipse class="st3" cx="410.5" cy="363.8" rx="27.7" ry="23"/>
	<ellipse class="st3" cx="415.3" cy="386.8" rx="22.9" ry="19"/>
	<path class="st4" d="M513.5,397.8c0,0-29.3,25.6-49.5-17.8c-20.1-43.4-25.2,12.8-14.9,25.9c10.3,13.2,42.4,34.5,67.8-2.4
		C539,371.6,513.5,397.8,513.5,397.8z"/>
	<path class="st5" d="M423.3,323.6c0,0,0.5,13.7-9.9,17.4c0,0,11.6,0.3,19.3,9.2c0,0,1-12.3,7.1-13.8
		C439.9,336.3,426.2,333.9,423.3,323.6z"/>
	<circle class="st3" cx="526.9" cy="387" r="4.7"/>
	<ellipse transform="matrix(0.3434 -0.9392 0.9392 0.3434 5.6659 743.691)" class="st3" cx="534.7" cy="367.8" rx="19.4" ry="4.9"/>
	<circle class="st6" cx="394.3" cy="271.9" r="0"/>
	<path class="st6" d="M435,267.8L409,279.9c-1.8,0.8-2.9,2.6-2.9,4.6v1.8c0,2.8-2.3,5.1-5.1,5.1h-1.7c-2.8,0-5.1-2.3-5.1-5.1v-2.2
		c0-2-1.2-3.8-3-4.6l-25.7-11.4c-2.6-1.1-3.7-4.1-2.6-6.7v0c1.1-2.6,4.1-3.7,6.7-2.6l28.5,12.6c0.6,0.3,1.3,0.4,2.1,0.4h0.8
		c0.7,0,1.5-0.2,2.1-0.5l27.5-12.8c2.5-1.2,5.6-0.1,6.7,2.5l0,0C438.6,263.6,437.5,266.6,435,267.8z"/>
	<path class="st7" d="M422.6,321c4.4,12.3-7.7,24.7-25.2,24.7c-14.8,0-26.9-9.9-26.9-22.2c0-12.2,7-18.9,15.4-20.1
		C394.9,302.2,416.1,302.8,422.6,321z"/>
	<ellipse class="st4" cx="394.1" cy="330.6" rx="18.4" ry="15.2"/>
	<ellipse class="st3" cx="445.9" cy="293.4" rx="14.8" ry="18.7"/>
	<ellipse class="st8" cx="446.8" cy="293.4" rx="11.4" ry="14.4"/>
	<circle class="st9" cx="449.2" cy="286.6" r="5.3"/>
	<ellipse class="st2" cx="433" cy="371.9" rx="6.4" ry="8.7"/>
	<ellipse class="st2" cx="431" cy="401.4" rx="6.4" ry="8.7"/>
	
		<ellipse transform="matrix(0.4465 -0.8948 0.8948 0.4465 -56.9648 609.9911)" class="st10" cx="464.6" cy="351" rx="12.4" ry="10.1"/>
	
		<ellipse transform="matrix(0.3011 -0.9536 0.9536 0.3011 -50.6878 704.491)" class="st11" cx="455.3" cy="386.8" rx="6.8" ry="5.3"/>
	
		<ellipse transform="matrix(0.7984 -0.6021 0.6021 0.7984 -150.7204 362.881)" class="st12" cx="466.6" cy="406.5" rx="3.4" ry="4.3"/>
	
		<ellipse transform="matrix(0.3434 -0.9392 0.9392 0.3434 -72.7315 724.2288)" class="st12" cx="481.6" cy="414.1" rx="2.4" ry="3.3"/>
	<ellipse transform="matrix(0.9322 -0.362 0.362 0.9322 -115.4596 207.6949)" class="st12" cx="496.5" cy="412" rx="2.8" ry="2.1"/>
	
		<ellipse transform="matrix(0.8422 -0.5392 0.5392 0.8422 -139.3227 337.8492)" class="st12" cx="507.5" cy="406.9" rx="1.8" ry="1.3"/>
</g>
</svg>
