<?xml version="1.0" encoding="utf-8"?>
<!-- Generator: Adobe Illustrator 21.0.2, SVG Export Plug-In . SVG Version: 6.00 Build 0)  -->
<svg version="1.1" id="Layer_1" xmlns="http://www.w3.org/2000/svg" xmlns:xlink="http://www.w3.org/1999/xlink" x="0px" y="0px"
	 viewBox="0 0 905.3 467.8" style="enable-background:new 0 0 905.3 467.8;" xml:space="preserve">
<style type="text/css">
	.st0{fill:#B96374;}
	.st1{fill:#F57933;}
	.st2{fill:#FFFFFF;}
	.st3{fill:#D84B25;}
	.st4{fill:#FFD33C;}
	.st5{fill:#CC6B3B;}
	.st6{fill:#383529;}
	.st7{fill:#EA7D47;}
	.st8{fill:#FEF9DB;}
	.st9{fill:#350F0C;}
	.st10{fill:#1D7576;}
	.st11{fill:#350F0C;stroke:#350F0C;stroke-linecap:round;stroke-miterlimit:10;}
	.st12{fill:#FEE499;}
</style>
<rect x="-46.3" y="-23.7" class="st0" width="997.9" height="515.1"/>
<g>
	<g>
		<path class="st1" d="M399.2,311c0,0-32.5,20.7-15.3,68.6c1.7,4-11.9,16.8-14.5,26.2c-2.6,9.4,22.2,21.7,38.4,9.4s17.5-11,14-34.2
			C420.7,374.1,477.6,359.3,399.2,311z"/>
		<path class="st2" d="M369.7,411c-2.1,2.7-1.5,6.8-1.5,6.8c0.9,0.4,4.2-0.2,6.3-2.9s2.8-5.7,1.5-6.8
			C374.7,407,371.9,408.3,369.7,411z"/>
		<path class="st2" d="M378.8,415.5c-2.1,2.7-1.5,6.8-1.5,6.8c0.9,0.4,4.2-0.2,6.3-2.9c2.1-2.7,2.8-5.7,1.5-6.8
			S381,412.8,378.8,415.5z"/>
		<path class="st2" d="M388.5,418.5c-2.1,2.7-1.5,6.8-1.5,6.8c0.9,0.4,4.2-0.2,6.3-2.9c2.1-2.7,2.8-5.7,1.5-6.8
			C393.5,414.5,390.6,415.9,388.5,418.5z"/>
		<g>
			<path class="st3" d="M559.2,127.7c10.4-11.7-0.4-29.6-6-38.1c-3.1-4.7-6.5-11.5-0.9-16.2c-3.4,3.6-3.9,8.4-4.3,13.2
				c-0.3,3.3,1.2,7,0.7,10.1c-0.6,3.4-3.9,4.1-5.7,6.6c-2.6,3.6-1.9,8.5-1.9,12.5c-3.4-4.4-12.2-9.5-8.7-16.3
				c-3.8,6.9-6.9,13.7-7.5,21.5c-0.4,5.3-3.1,7.1-6.4,10.8c-5.1,5.8-6.3,14.3-6.9,21.6c-0.5,7.2,2.6,11.3,4.4,18
				c1.3,4.7,1.5,8.2,5.9,10.7c5.1,3,9.4,1.9,14-1.7c7.8-6,7.2-18,8.5-26.9c0.9-6.8,3-14.4,7.8-19.9
				C554.2,131.6,557.7,129.6,559.2,127.7"/>
		</g>
		<g>
			<path class="st4" d="M515.1,204.3c5.2,14.2,28.1,12.5,35,0.7c6.1-10.3,0.7-22.5-3.1-32.5c-2.2-5.7-3-10.3-2.3-16.4
				c0.7-5.6,2.5-11.3,3.9-16.7c0.6-2.1,2.1-3.5,2.7-5.6c0.8-2.9-2.3-5.5-1.5-7.8c-1.5,2.6-1.5,5.7-2.5,8.5
				c-1.5,4.4-4.2,8.6-7.1,12.1c-1.2,1.4-2.6,2.9-4.3,3.6c-1.5,0.6-3,0.5-4.4,1.4c-2,1.3-2.5,5.7-4.8,6.2c-2.5,0.5-4.1-3.3-5.1-5
				c-1.4-2.4-3.6-4.5-4.7-7c-1.5-3.4-0.7-6.5-0.9-10c-0.1-1.8-0.8-5.2-2.6-5.7c-1.1,3.1-0.5,6.2-1,9.5c-0.5,3.7-2.5,6.1-4.5,9.1
				c-4.3,6.4-0.9,13.8-3,20.9c-2.2,7.6-2.7,19.4,3.3,25.6c1.7,1.7,3.7,3.2,5.1,5.1C514.5,202,514.5,202,515.1,204.3"/>
		</g>
		<g>
			<path class="st5" d="M515.9,337.5c1.4-5.1,5.8-10.7,8.2-15.8c4.8-10,8.8-20,11-30.9c4.3-21.1,5.3-45.3,0.8-66.5
				c-0.7-3.2-2.6-14.4-6.2-15.8c-5.5-2.1-8.3,9.6-10,13.7c-8.1,18.8-17.6,41.4-21.1,61.4c-1.2,6.8-3.3,60.1,16,52.6"/>
		</g>
		<path class="st1" d="M410.3,201.5c0,0-48.2,16.5-87.3,92.8c-1.1,2.2,1.3,4.4,3.3,3c8.1-5.5,20.1-15,25.1-10.9
			c1.8,1.4,2.9,3.7,1.4,12.6c-0.4,2.6,2.7,1.6,4,0.7c5.5-4.1,2.1-5.8,8.6-10.7c7.3-5.6,38-31.5,43.9-39.4S450.9,213.7,410.3,201.5z"
			/>
		<ellipse class="st6" cx="456.2" cy="423.6" rx="102.8" ry="11.6"/>
		<path class="st7" d="M517.1,187.4c-6.6,6.1-13.5,10.7-20,14.6c-53.2,32.2-119.6-13.1-118.3-34c0.6-8.5,2.8-18.2,4.8-35.7
			c0.3-2.5,0.4-16.6,5.8-31.6c2.7-7.3,6.6-15,12.5-21.5c9.5-10.6,24.1-18.6,46.5-18.6c0.9,0,1.8,0,2.7,0c0.9,0,1.8,0,2.7,0
			c22.4,0,37,8,46.6,18.6c5.9,6.6,9.8,14.2,12.5,21.5c5.4,15,5.5,29.1,5.8,31.6c1.6,13.9,3.8,22.8,4.5,30.2
			C524.2,171.1,523.2,177.6,517.1,187.4z"/>
		<circle class="st8" cx="413.6" cy="128.7" r="4.9"/>
		<path class="st9" d="M420.2,134.7c0.9,12.1,0.6,19.8-10.5,19.8c-11.7-0.1-11.1-5.5-10.9-13.7c0.3-11.9,1.8-28.1,11.5-28.1
			C419.2,112.7,419.3,122.8,420.2,134.7z"/>
		<ellipse class="st8" cx="411.9" cy="124.1" rx="3.5" ry="6.3"/>
		<path class="st10" d="M418.2,144c0,4.7-3.8,8.5-8.5,8.5c-4.7,0-8.5-3.8-8.5-8.5c0-3.2,1.8-6,4.4-7.4c-0.1,0.6-0.1,1.2-0.1,1.8
			c0,4.7,1.9,8.5,4.3,8.5c2.3,0,4.3-3.8,4.3-8.5c0-0.6,0-1.2-0.1-1.8C416.4,138.1,418.2,140.9,418.2,144z"/>
		<line class="st11" x1="441.2" y1="175.6" x2="446" y2="179.6"/>
		<path class="st7" d="M399.2,311c0,0-32.5,20.7-15.3,68.6c1.7,4-11.9,16.8-14.5,26.2c-2.6,9.4,22.2,21.7,38.4,9.4s17.5-11,14-34.2
			C420.7,374.1,477.6,359.3,399.2,311z"/>
		<path class="st2" d="M369.7,411c-2.1,2.7-1.5,6.8-1.5,6.8c0.9,0.4,4.2-0.2,6.3-2.9s2.8-5.7,1.5-6.8
			C374.7,407,371.9,408.3,369.7,411z"/>
		<path class="st2" d="M378.8,415.5c-2.1,2.7-1.5,6.8-1.5,6.8c0.9,0.4,4.2-0.2,6.3-2.9c2.1-2.7,2.8-5.7,1.5-6.8
			S381,412.8,378.8,415.5z"/>
		<path class="st2" d="M388.5,418.5c-2.1,2.7-1.5,6.8-1.5,6.8c0.9,0.4,4.2-0.2,6.3-2.9c2.1-2.7,2.8-5.7,1.5-6.8
			C393.5,414.5,390.6,415.9,388.5,418.5z"/>
		<path class="st7" d="M410.3,201.5c0,0-48.2,16.5-87.3,92.8c-1.1,2.2,1.3,4.4,3.3,3c8.1-5.5,20.1-15,25.1-10.9
			c1.8,1.4,2.9,3.7,1.4,12.6c-0.4,2.6,2.7,1.6,4,0.7c5.5-4.1,2.1-5.8,8.6-10.7c7.3-5.6,38-31.5,43.9-39.4S450.9,213.7,410.3,201.5z"
			/>
		<circle class="st8" cx="413.6" cy="128.7" r="4.9"/>
		<path class="st9" d="M420.2,134.7c0.9,12.1,0.6,19.8-10.5,19.8c-11.7-0.1-11.1-5.5-10.9-13.7c0.3-11.9,1.8-28.1,11.5-28.1
			C419.2,112.7,419.3,122.8,420.2,134.7z"/>
		<ellipse class="st8" cx="411.9" cy="124.1" rx="3.5" ry="6.3"/>
		<path class="st10" d="M418.2,144c0,4.7-3.8,8.5-8.5,8.5c-4.7,0-8.5-3.8-8.5-8.5c0-3.2,1.8-6,4.4-7.4c-0.1,0.6-0.1,1.2-0.1,1.8
			c0,4.7,1.9,8.5,4.3,8.5c2.3,0,4.3-3.8,4.3-8.5c0-0.6,0-1.2-0.1-1.8C416.4,138.1,418.2,140.9,418.2,144z"/>
		<line class="st11" x1="441.2" y1="175.6" x2="446" y2="179.6"/>
		<path class="st1" d="M506.1,311c0,0,32.5,20.7,15.3,68.6c-1.7,4,11.9,16.8,14.5,26.2c2.6,9.4-22.2,21.7-38.4,9.4
			c-16.2-12.4-17.5-11-14-34.2C484.6,374.1,427.7,359.3,506.1,311z"/>
		<path class="st2" d="M535.6,411c2.1,2.7,1.5,6.8,1.5,6.8c-0.9,0.4-4.2-0.2-6.3-2.9c-2.1-2.7-2.8-5.7-1.5-6.8
			C530.6,407,533.4,408.3,535.6,411z"/>
		<path class="st2" d="M526.5,415.5c2.1,2.7,1.5,6.8,1.5,6.8c-0.9,0.4-4.2-0.2-6.3-2.9c-2.1-2.7-2.8-5.7-1.5-6.8
			C521.5,411.5,524.3,412.8,526.5,415.5z"/>
		<path class="st2" d="M516.8,418.5c2.1,2.7,1.5,6.8,1.5,6.8c-0.9,0.4-4.2-0.2-6.3-2.9c-2.1-2.7-2.8-5.7-1.5-6.8
			C511.8,414.5,514.7,415.9,516.8,418.5z"/>
		<path class="st1" d="M495,201.5c0,0,48.2,16.5,87.3,92.8c1.1,2.2-1.3,4.4-3.3,3c-8.1-5.5-20.1-15-25.1-10.9
			c-1.8,1.4-2.9,3.7-1.4,12.6c0.4,2.6-2.7,1.6-4,0.7c-5.5-4.1-2.1-5.8-8.6-10.7c-7.3-5.6-38-31.5-43.9-39.4
			C490,241.6,454.4,213.7,495,201.5z"/>
		<circle class="st8" cx="491.7" cy="128.7" r="4.9"/>
		<path class="st9" d="M485.1,134.7c-0.9,12.1-0.6,19.8,10.5,19.8c11.7-0.1,11.1-5.5,10.9-13.7c-0.3-11.9-1.8-28.1-11.5-28.1
			C486.1,112.7,486,122.8,485.1,134.7z"/>
		<ellipse class="st8" cx="493.4" cy="124.1" rx="3.5" ry="6.3"/>
		<path class="st10" d="M487.1,144c0,4.7,3.8,8.5,8.5,8.5s8.5-3.8,8.5-8.5c0-3.2-1.8-6-4.4-7.4c0.1,0.6,0.1,1.2,0.1,1.8
			c0,4.7-1.9,8.5-4.3,8.5c-2.3,0-4.3-3.8-4.3-8.5c0-0.6,0-1.2,0.1-1.8C488.9,138.1,487.1,140.9,487.1,144z"/>
		<path class="st7" d="M506.1,311c0,0,32.5,20.7,15.3,68.6c-1.7,4,11.9,16.8,14.5,26.2c2.6,9.4-22.2,21.7-38.4,9.4
			c-16.2-12.4-17.5-11-14-34.2C484.6,374.1,427.7,359.3,506.1,311z"/>
		<path class="st2" d="M535.6,411c2.1,2.7,1.5,6.8,1.5,6.8c-0.9,0.4-4.2-0.2-6.3-2.9c-2.1-2.7-2.8-5.7-1.5-6.8
			C530.6,407,533.4,408.3,535.6,411z"/>
		<path class="st2" d="M526.5,415.5c2.1,2.7,1.5,6.8,1.5,6.8c-0.9,0.4-4.2-0.2-6.3-2.9c-2.1-2.7-2.8-5.7-1.5-6.8
			C521.5,411.5,524.3,412.8,526.5,415.5z"/>
		<path class="st2" d="M516.8,418.5c2.1,2.7,1.5,6.8,1.5,6.8c-0.9,0.4-4.2-0.2-6.3-2.9c-2.1-2.7-2.8-5.7-1.5-6.8
			C511.8,414.5,514.7,415.9,516.8,418.5z"/>
		<path class="st7" d="M495,201.5c0,0,48.2,16.5,87.3,92.8c1.1,2.2-1.3,4.4-3.3,3c-8.1-5.5-20.1-15-25.1-10.9
			c-1.8,1.4-2.9,3.7-1.4,12.6c0.4,2.6-2.7,1.6-4,0.7c-5.5-4.1-2.1-5.8-8.6-10.7c-7.3-5.6-38-31.5-43.9-39.4
			C490,241.6,454.4,213.7,495,201.5z"/>
		<circle class="st8" cx="491.7" cy="128.7" r="4.9"/>
		<path class="st9" d="M485.1,134.7c-0.9,12.1-0.6,19.8,10.5,19.8c11.7-0.1,11.1-5.5,10.9-13.7c-0.3-11.9-1.8-28.1-11.5-28.1
			C486.1,112.7,486,122.8,485.1,134.7z"/>
		<ellipse class="st8" cx="493.4" cy="124.1" rx="3.5" ry="6.3"/>
		<path class="st10" d="M487.1,144c0,4.7,3.8,8.5,8.5,8.5s8.5-3.8,8.5-8.5c0-3.2-1.8-6-4.4-7.4c0.1,0.6,0.1,1.2,0.1,1.8
			c0,4.7-1.9,8.5-4.3,8.5c-2.3,0-4.3-3.8-4.3-8.5c0-0.6,0-1.2,0.1-1.8C488.9,138.1,487.1,140.9,487.1,144z"/>
		<line class="st11" x1="464.1" y1="175.6" x2="459.3" y2="179.6"/>
		<path class="st7" d="M514.1,318.4c0,55.6-26.3,67.2-61.4,67.2s-61.4-11.5-61.4-67.2S417.5,184,452.7,184S514.1,262.7,514.1,318.4z
			"/>
		<path class="st12" d="M506.2,308.3c0,39.9-26.7,72.2-53.5,72.2s-53.5-32.3-53.5-72.2s26.7-72.2,53.5-72.2S506.2,268.5,506.2,308.3
			z"/>
		<g>
			<path class="st9" d="M398.9,179.3c4.7-0.2,9.4,0.4,14,1.1l6.9,1.3c2.3,0.4,4.6,1,6.9,1.5c4.6,1,9.1,2.3,13.6,3.5
				c4.5,1.3,9,2.6,13.5,4l-0.3,0c4.4-1.4,8.8-2.7,13.3-3.9c4.5-1.2,8.9-2.4,13.4-3.5c4.5-1,9-2,13.6-2.7c2.3-0.3,4.6-0.7,6.9-0.9
				c2.3-0.2,4.6-0.4,6.9-0.3c-2.3,0.1-4.6,0.3-6.9,0.6c-2.3,0.3-4.5,0.8-6.8,1.2c-4.5,0.8-9,1.9-13.5,3c-8.9,2.3-17.8,4.8-26.6,7.6
				l-0.2,0.1l-0.2-0.1c-4.4-1.4-8.9-2.8-13.4-4.1c-4.5-1.3-9-2.5-13.6-3.6c-2.3-0.6-4.5-1.1-6.8-1.6l-6.9-1.4
				C408.2,180.1,403.6,179.4,398.9,179.3z"/>
		</g>
		<path class="st2" d="M420.6,182.2l-0.8,1.4l-0.3,0.5l-2.3,3.9l-2.3-3.9l-0.8-1.4l-1.1-2C415.5,181.1,418.1,181.6,420.6,182.2z"/>
		<path class="st2" d="M499.1,180l-0.9,1.6l-0.8,1.4l-2.3,3.9l-2.3-3.9l-0.3-0.5l-0.8-1.4C494.3,180.7,496.8,180.3,499.1,180z"/>
		<path class="st5" d="M427.7,203.8c0,0,34,8.5,56.3,0C483.9,203.8,455.8,225.6,427.7,203.8z"/>
	</g>
</g>
</svg>
