<?xml version="1.0" encoding="utf-8"?>
<!-- Generator: Adobe Illustrator 21.0.2, SVG Export Plug-In . SVG Version: 6.00 Build 0)  -->
<svg version="1.1" id="Layer_1" xmlns="http://www.w3.org/2000/svg" xmlns:xlink="http://www.w3.org/1999/xlink" x="0px" y="0px"
	 viewBox="0 0 905.3 467.8" style="enable-background:new 0 0 905.3 467.8;" xml:space="preserve">
<style type="text/css">
	.st0{fill:#9B647E;}
	.st1{fill:#383529;}
	.st2{fill:#E6A8EF;}
	.st3{fill:#CF98D8;}
	.st4{fill:#54534D;}
</style>
<rect x="-46.3" y="-23.7" class="st0" width="997.9" height="515.1"/>
<g>
	<ellipse class="st1" cx="452.7" cy="430.8" rx="139" ry="7.2"/>
	<path class="st2" d="M317.7,368.6c0.1-0.2,0.3-0.4,0.4-0.6c3.4-5.5,6.6-12.9,9.4-20.7c9.2-25.6,10.4-53.4,3.6-79.7
		c-0.1-0.2-0.1-0.5-0.2-0.7c-5.6-21.4-6.9-24.8-7.8-33c-1.6-13.4-0.6-23.7,2.8-29.7c5-9,15.2-8,23.5,1.1c1.2,1.3,13.1,17,17.4,19
		c1,0.5,7.6,3.5,14,1.7c8-2.3,7-9.8,16.2-17.9c1.7-1.5,11.1-9.5,24.6-9.5c3.3,0,12.7,0,20.2,6.2c6.9,5.7,6.8,12.5,12.3,13.4
		c3.7,0.7,5-2.2,11.8-4.5c0.9-0.3,8.9-2.9,17.9-1.1c8.2,1.6,13.6,6.2,20.2,11.8c5.2,4.4,4.8,5.2,12.9,12.9
		c7.2,6.8,10.8,10.2,13.4,11.2c6.7,2.6,9.8-0.5,26.9-1.7c9.4-0.7,14.1-0.9,17.9,1.1c10,5.4,11.1,19.7,11.2,20.7
		c0.5,7.6-2.6,14.1-9,26.9c-7.1,14.4-9.5,14.5-10.6,21.3c-1.8,11.3,3.2,21,6.2,26.9c6.2,12.2,10.7,11.3,15.1,20.7
		c4.8,10.3,6.2,49.3-26.3,59.3c-20.8,6.4-41.3,4.7-54.3,5c-17.2,0.4-16.3-1.8-42-1.1c-16.2,0.4-18.1,1.9-42,2.8
		c-13.4,0.5-48.1,2.5-64.9-2.5C332.4,420,304.4,389.8,317.7,368.6z"/>
	<path class="st3" d="M317.7,368.6c0.1-0.2,0.3-0.4,0.4-0.6c3.4-5.5,9.4-20.7,9.4-20.7c28,144.2,260.3,16.9,260.3,16.9
		c4.8,10.3,6.2,49.3-26.3,59.3c-20.8,6.4-41.3,4.7-54.3,5c-17.2,0.4-16.3-1.8-42-1.1c-16.2,0.4-18.1,1.9-42,2.8
		c-13.4,0.5-48.1,2.5-64.9-2.5C332.4,420,304.4,389.8,317.7,368.6z"/>
	<circle class="st4" cx="402.4" cy="266.6" r="4.3"/>
	<circle class="st4" cx="472.5" cy="266.6" r="4.3"/>
	<path class="st4" d="M471.2,299.4l-10.6,0.9c-15.2,1.4-30.5,1.4-45.7,0l-10.6-0.9c-1.3-0.1-2.3-0.8-2.3-1.7v0c0-1,1.4-1.8,3-1.7
		l9.8,0.9c15.2,1.4,30.5,1.4,45.7,0l9.8-0.9c1.6-0.1,3,0.6,3,1.7v0C473.4,298.5,472.5,299.2,471.2,299.4z"/>
</g>
</svg>
