<?xml version="1.0" encoding="utf-8"?>
<!-- Generator: Adobe Illustrator 21.0.2, SVG Export Plug-In . SVG Version: 6.00 Build 0)  -->
<svg version="1.1" id="Layer_1" xmlns="http://www.w3.org/2000/svg" xmlns:xlink="http://www.w3.org/1999/xlink" x="0px" y="0px"
	 viewBox="0 0 905.3 467.8" style="enable-background:new 0 0 905.3 467.8;" xml:space="preserve">
<style type="text/css">
	.st0{fill:#84725B;}
	.st1{fill:#BC8550;}
	.st2{fill:#E2D2B1;}
	.st3{fill:#383529;}
	.st4{fill:#D09555;}
	.st5{fill:#FEF9DB;}
	.st6{fill:#350F0C;}
	.st7{fill:#593E2F;}
	.st8{opacity:0.75;fill:#DDAA2A;}
</style>
<rect x="-46.3" y="-23.7" class="st0" width="997.9" height="515.1"/>
<g>
	<path class="st1" d="M544.4,194.7c0,0,29.6,53.3,11.9,83.6s-27.4,33.5-47.1,33.5c-19.7,0-9-118.1-9-118.1L544.4,194.7z"/>
	<path class="st2" d="M509.2,88.8c0,0-60.9,34.3-51,104.8s66.9,10.2,66.9,10.2s27.2,29.3,19.3-9.1c-5.5-26.7-26.5-64-26.2-93.2
		c0,0-3.7,0.4-4.1,3.6c-0.4,3.3-2.9-5.1-0.4-11.7c0,0-7.7,1.1-8.4,4C504.6,100.4,506.1,92.5,509.2,88.8z"/>
	<ellipse class="st3" cx="456.8" cy="427.5" rx="102.8" ry="11.6"/>
	<path class="st1" d="M496.1,299.8c0,0,0,0.1-0.1,0.1c1.1,2.7,3.5,9.5,3.7,19.5c0.1,2.5,0.6,6.6,1.3,11.9v0
		c1.9,54.6-5.4,88.6-23.4,90.1c-11.8,1-10.1-45.1-10.1-45.1c-23.9,15.7-21.7-0.7-21.7-0.7s3.8,45.8-5.8,45.8
		c-23.2,0-32.8-73.5-31-96.9c-0.2,1.3-0.5,2.8-0.8,4.6c0.4-3,0.8-6.3,1.3-9.8c1.3-9.9,2.6-16.8,3.7-19.5c0-0.1-0.1-0.1-0.1-0.2
		c-5.4-10.1-7.2-16.4-7.3-23.6c-0.1-7.9,1.9-16.7,3.2-32.8c0.2-2.4,0.3-15.3,3.9-29.1c1.8-6.8,4.4-13.7,8.4-19.8
		c6.4-9.8,16.2-17.1,31.3-17.1c0.6,0,1.2,0,1.8,0c0.6,0,1.2,0,1.8,0c15.1,0,24.9,7.3,31.3,17.1c4,6,6.6,13,8.4,19.8
		c3.7,13.8,3.7,26.7,3.9,29.1c1.1,12.7,2.5,20.9,3.1,27.7C504,280.7,502.8,287.4,496.1,299.8z"/>
	<path class="st4" d="M514.2,299.8c0,0-0.1,0.1-0.1,0.1c1.7,3,5.2,10.3,5.6,21.2c0.1,2.8,0.8,7.2,2,12.9v0c2.8,59.4-8,96.3-34.8,98
		c-17.6,1.1-8-48.9-8-48.9c-25.2,13.8-45.4-1.1-45.4-1.1s11.9,50-2.4,50c-34.5,0-48.8-79.9-46.1-105.3c-0.3,1.4-0.7,3.1-1.3,5
		c0.6-3.3,1.2-6.9,1.9-10.6c1.9-10.7,3.9-18.3,5.6-21.2c0-0.1-0.1-0.1-0.1-0.2c-8.1-11-10.7-17.9-10.8-25.6
		c-0.1-8.6,2.8-18.2,4.8-35.6c0.3-2.6,0.4-16.6,5.8-31.6c2.7-7.4,6.6-14.9,12.5-21.5c9.5-10.6,24.1-18.6,46.6-18.6
		c0.9,0,1.8,0,2.7,0c0.9,0,1.8,0,2.7,0c22.4,0,37,8,46.6,18.6c5.9,6.6,9.8,14.2,12.5,21.5c5.4,15,5.5,29.1,5.8,31.6
		c1.6,13.8,3.8,22.8,4.5,30.2C525.9,279,524.2,286.3,514.2,299.8z"/>
	<circle class="st5" cx="414.3" cy="236.6" r="4.9"/>
	<path class="st6" d="M421.2,247.7c0.9,12.1-6.7,14.6-10.9,14.6c-6.1,0-10.2-3.6-10.2-10.5c0-11.9,1.1-31.3,10.8-31.3
		C419.8,220.5,420.3,235.8,421.2,247.7z"/>
	<circle class="st5" cx="412" cy="228.7" r="2.9"/>
	<path class="st6" d="M453,264c0.1,0.1,0.2,0.1,0.3,0l2.7-1.7l1.9-1.2c0.3-0.2,0.1-0.6-0.2-0.6l-4.6,0l-4.6,0
		c-0.3,0-0.4,0.4-0.2,0.6l1.9,1.2L453,264z"/>
	<g>
		<path class="st4" d="M301.2,121.4c-1-0.1-1.7,0.9-1.2,1.8c5.9,10.3,34.5,56.5,84.4,77.4c55.3,23.1,19.2-16.7,17.8-18.2
			c0,0-0.1-0.1-0.1-0.1C400.8,180.4,362.5,129.1,301.2,121.4z"/>
	</g>
	<g>
		<path class="st7" d="M313.1,129.8c-0.8-0.1-1.3,0.7-0.9,1.4c4.6,8.1,27.2,44.6,66.6,61c43.6,18.2,15.1-13.2,14-14.4
			c0,0,0,0-0.1-0.1C391.6,176.3,361.4,135.9,313.1,129.8z"/>
	</g>
	<g>
		<path class="st4" d="M604.2,121.4c1-0.1,1.7,0.9,1.2,1.8c-5.9,10.3-34.5,56.5-84.4,77.4c-55.3,23.1-19.2-16.7-17.8-18.2
			c0,0,0.1-0.1,0.1-0.1C504.5,180.4,542.8,129.1,604.2,121.4z"/>
	</g>
	<g>
		<path class="st7" d="M592.5,130.5c0.8-0.1,1.3,0.7,1,1.4c-4.6,8.2-26.8,44.8-66,61.6c-43.5,18.6-15.3-13-14.2-14.3
			c0,0,0,0,0.1-0.1C514.3,177.7,544.1,137,592.5,130.5z"/>
	</g>
	<path class="st8" d="M385.3,309.5c0,0.6-0.2,1.4-0.4,2.3C385.1,310.9,385.2,310.1,385.3,309.5z"/>
	<g>
		<path class="st6" d="M431.1,272.4c1.1,1.8,2.5,3.5,4.2,4.4c1.7,1,3.8,0.9,5.6,0.2c0.4-0.2,0.9-0.4,1.3-0.6l1.3-0.8
			c0.9-0.6,1.9-1.1,2.9-1.5c2-0.9,4.1-1.6,6.4-1.8c2.3-0.2,4.6,0.4,6.6,1.5c2,1,3.7,2.4,5.4,3.2c0.9,0.4,1.8,0.6,2.8,0.6
			c1,0,1.9-0.2,2.9-0.6c1.9-0.7,3.7-2,5.4-3.2c-1.4,1.6-3,3-5,4.1c-1,0.5-2.1,0.9-3.2,1c-1.2,0.1-2.3-0.1-3.4-0.5
			c-2.2-0.8-3.9-2.1-5.7-2.9c-1.8-0.9-3.7-1.3-5.7-1.2c-1.9,0.1-3.9,0.7-5.8,1.5c-0.9,0.4-1.9,0.9-2.8,1.4c-0.9,0.5-1.9,1.1-3,1.4
			c-1.1,0.4-2.3,0.5-3.4,0.4c-1.2-0.1-2.3-0.6-3.2-1.2C432.9,276.4,431.7,274.4,431.1,272.4z"/>
	</g>
	<path class="st2" d="M390.1,295.4c0,0,68,54.1,128.4-1.8c0,0,43.4,18.2,3.6,51c0,0-9,23.9-16.7,29.2c0,0-10.4-7.2-15.2-4.3
		c0,0-25.1,19.7-31.8,19.7c0,0-18-5.4-23.6-17.9c0,0-8.6,3.2-4.2,14.7c0,0-13-2-11.5-22c0,0-9.6-5.2-8.9,0c0,0-5.1-1.4-8-9.7
		c0,0-2.3,6.6-6,16.5c0,0-15-8.2-16.1-21.8c-0.8-10.1-14.7-19.9-11.4-32.3C370.7,309.5,369.9,293.5,390.1,295.4z"/>
	<path class="st4" d="M419.2,173.3c0,0-8.4-7-7.2-13.5c0,0,13.6,10.3,19.1,9.2c0,0,9.9-3.4,10.8-9.2c0,0,0.9-3.5,2.5,4.7
		c1.6,8.2,8.1,0.4,6.5-5c0,0,1.6-1.3,4.5,7.3c0,0,2.6-7.8,2.8-13.6c0,0,11.6,8.2,9.2,13.6c-2.5,5.3,10.7,2.4,11.5-3.5
		c0,0,0.9,4.7-2.8,10.1C472.2,178.7,419.2,173.3,419.2,173.3z"/>
	<path class="st7" d="M418.8,252c0,4.7-3.8,8.5-8.5,8.5c-4.7,0-8.5-3.8-8.5-8.5c0-3.2,1.8-6,4.4-7.4c-0.1,0.6-0.1,1.2-0.1,1.8
		c0,4.7,1.9,8.5,4.3,8.5c2.3,0,4.3-3.8,4.3-8.5c0-0.6,0-1.2-0.1-1.8C417,246.1,418.8,248.8,418.8,252z"/>
	<path class="st6" d="M480.6,247.7c-0.9,12.1,6.7,14.6,10.9,14.6c6.1,0,10.2-3.6,10.2-10.5c0-11.9-1.1-31.3-10.8-31.3
		C482,220.5,481.5,235.8,480.6,247.7z"/>
	<circle class="st5" cx="489.8" cy="228.7" r="2.9"/>
	<path class="st7" d="M483,252c0,4.7,3.8,8.5,8.5,8.5c4.7,0,8.5-3.8,8.5-8.5c0-3.2-1.8-6-4.4-7.4c0.1,0.6,0.1,1.2,0.1,1.8
		c0,4.7-1.9,8.5-4.3,8.5c-2.3,0-4.3-3.8-4.3-8.5c0-0.6,0-1.2,0.1-1.8C484.7,246.1,483,248.8,483,252z"/>
	<path class="st4" d="M396.9,203.8c0,0-7.3-5.4-8.5-10.5c0,0,6.1,2.1,6.4,0c0,0,1.6-1.9-0.1-4.7c0,0,2.6-0.4,4.5,2.5
		s-0.4-3.6-2.3-5.3c0,0,5.1-1.1,6.6,1.5S405.1,200.9,396.9,203.8z"/>
	<path class="st4" d="M500.1,193.6c0,0,5.8-7,10.9-8c0,0-2.4,6-0.3,6.4c0,0,1.8,1.7,4.7,0.2c0,0,0.2,2.6-2.8,4.3
		c-3,1.7,3.6-0.2,5.4-2.1c0,0,0.8,5.1-1.8,6.5S502.6,201.8,500.1,193.6z"/>
</g>
</svg>
