<?xml version="1.0" encoding="utf-8"?>
<!-- Generator: Adobe Illustrator 21.0.2, SVG Export Plug-In . SVG Version: 6.00 Build 0)  -->
<svg version="1.1" id="Layer_1" xmlns="http://www.w3.org/2000/svg" xmlns:xlink="http://www.w3.org/1999/xlink" x="0px" y="0px"
	 viewBox="0 0 905.3 467.8" style="enable-background:new 0 0 905.3 467.8;" xml:space="preserve">
<style type="text/css">
	.st0{fill:#645472;}
	.st1{opacity:0.57;}
	.st2{fill:#C8B4F9;}
	.st3{fill:#202020;}
	.st4{fill:#B96374;}
	.st5{fill:#FFFFFF;}
	.st6{fill:#333333;}
	.st7{fill:#424242;}
	.st8{fill:#383529;}
</style>
<rect x="-46.3" y="-23.7" class="st0" width="997.9" height="515.1"/>
<g>
	<g>
		<g>
			<g class="st1">
				<path class="st2" d="M365.8,223.9c3.6-4.7,2-7.2,0.1-11.6c-0.6-1.3-5.9-0.7-6.6-2.1c-2-4.1,0.6-5.1-0.5-8.7
					c-4-13-7.7-16.8-21.1-8c-9.9-7.2-19.4-30.8-12.5-39.1c2.9-3.5,10.8-5.2,14.7-10.4c4.8-6.4,9.7-11.6,2.2-20.4
					c-8.5-9.9-36-3.2-34.4-19.1c1.5-15.5,29.2-20.2,40.7-17.7c1.9-7.2-2.2-20.9,2.1-27c4.6-6.6,12.8-21.3,19.3-21.7
					c14.2-0.9,13.8,20.5,36.2,31.3c12,5.9,16.3-3,24-8.6c2.2-1.6,0.9,6.7,1.7,7.4c0.2,0.2-1.6,3,0.1,4.3c2.5,1.8,4.3-1.7,6.3-0.8
					c2.5,1.2,5.9-2,9.2-0.2c3.2,1.8,3.9,7.8,5.8,10.7c5.9,9,11.4,13.7,22.5,14.6c16.3,1.2,40.4-2.7,38.1-23.9
					c-1.9-18-41.3-41.8-1.3-38.9c10.5,0.8,20.8,1.9,30,6.7c6.4,3.3,5.2,6.9,12.5,6.1c-1.6,0.2,13.7-6.4,12.7-5.7
					c5.5-4,3.5-13.9,8.4-16.5c3.8-2.1,19.3,9.3,24.3,9.5c8.3,0.2,22-6.7,17,9.4c-3.1,10.2-16.7,11.8-5,23.3
					c8.2,8.1,23.2,5.4,21.4,22.6c-1.5,13.4-19.8,20.2-30.8,19.5c5.8-11.3-8.3-19.5-18.6-18.3c-5,0.6-20.6,8.9-21.4,12.5
					c-2.5,10.4,16.7,18.8,12.9,30c-6,17.4-31.1-2.7-41.9,2.1c-8.2,3.6-18.1,16.9-14.8,26.2c1.8,5,11.1,12.3,15.4,16.3
					c13,12.2,25.1,5.9,40.2,7.5c13.2,1.4,13.7,10.2,21.8,18c7.7,7.5,20.7,12.5,19.4,27c-0.8,9-6.4,6.9-9.8,12
					c-5.1,7.9-3.4,1.7,0.7,12.7c5.1,13.7,0.3,22.1-13.3,29.1c-4.1-13.4-15.6-11.3-24.8-2.1c-3.9,3.8-3.2,11.2-10.6,12.6
					c-7.9,1.5-6.9-3.8-11.9-6.1c-11.4-5.1-23.3-1.8-35.1-6.6c-9-3.7-12.4-14.2-21.5-0.6c-9.1,13.8,10.9,21.5-0.5,20
					c-10.6-1.3-18.2-17.9-19.8-24.2c-3.4-13.1,4.5-2.1,7.5-11.9c4-12.9-8.9-22.6-16.6-9.9c-5.5,9-10.4,21.3-15,18.9
					c-8-5.6,6.5-21.8-9.8-13.7c-2.2,1.1,0.1,4.9-1.5,6c-2.6,1.9-5.3,2.3-8,3.8c-9.3,5.1-16.7,3.1-22.9,12.7
					c-5.1,8-3.1,16.2-12.4,4.9c-7.2-8.7-5.5-22.9-13-31.6c-8.4-9.8-24.6-16.2-14-32.3H365.8z"/>
			</g>
			<circle class="st3" cx="455.6" cy="200.2" r="77.9"/>
			<path class="st4" d="M502.4,256.4c-4.2,1.6-9.2,3-15,4.1c-1.8,0.4-3.7,0.7-5.6,1c-8,1.2-16.9,1.9-26.4,1.9
				c-9.5,0-18.4-0.7-26.3-1.8c-1.9-0.3-3.8-0.6-5.6-0.9c-5.8-1.1-10.9-2.5-15.1-4.2c4.3,0.8,9,1.5,13.9,2c2.6,0.3,5.3,0.6,8.1,0.8
				c7.8,0.6,16.2,1,25,1c8.8,0,17.3-0.4,25.1-1c2.8-0.2,5.5-0.5,8.1-0.8C493.5,257.8,498.1,257.2,502.4,256.4z"/>
			<g>
				<path class="st5" d="M440.5,213.8c-6.3,16.8-27.6,24.2-44.3,18.2c-32.8-11.8-26.2-66.6-25.3-67.2
					C372.9,168.2,394.1,196,440.5,213.8z"/>
			</g>
			<path class="st5" d="M470.7,213.8C477,230.6,498.2,238,515,232c32.8-11.8,26.2-66.6,25.3-67.2C538.2,168.2,517.1,196,470.7,213.8
				z"/>
			<ellipse class="st3" cx="495.5" cy="215.9" rx="3.2" ry="10"/>
			<path class="st5" d="M430.3,259.2l-1.3,2.3l-0.3,0.4l-2.3,3.9l-2.3-3.9l-0.8-1.4l-1.2-2.1C424.8,258.7,427.5,259,430.3,259.2z"/>
			<path class="st5" d="M488.6,258.4l-1.2,2.1l-0.8,1.4l-2.3,3.9l-2.3-3.9l-0.3-0.5l-1.3-2.3C483.2,259,485.9,258.7,488.6,258.4z"/>
			<ellipse class="st3" cx="417.9" cy="217.6" rx="3.2" ry="10"/>
		</g>
		<ellipse transform="matrix(0.5 -0.866 0.866 0.5 100.1509 490.3052)" class="st6" cx="474.7" cy="158.4" rx="24" ry="32.7"/>
		<ellipse transform="matrix(0.5 -0.866 0.866 0.5 103.9607 490.3052)" class="st7" cx="476.6" cy="155.1" rx="16.7" ry="22.7"/>
	</g>
	<ellipse class="st8" cx="451.3" cy="436.2" rx="82.6" ry="7.2"/>
</g>
</svg>
