<?xml version="1.0" encoding="utf-8"?>
<!-- Generator: Adobe Illustrator 21.0.2, SVG Export Plug-In . SVG Version: 6.00 Build 0)  -->
<svg version="1.1" id="Layer_1" xmlns="http://www.w3.org/2000/svg" xmlns:xlink="http://www.w3.org/1999/xlink" x="0px" y="0px"
	 viewBox="0 0 905.3 467.8" style="enable-background:new 0 0 905.3 467.8;" xml:space="preserve">
<style type="text/css">
	.st0{fill:#999542;}
	.st1{fill:#383529;}
	.st2{fill:#FFD33C;}
	.st3{fill:#C4793B;}
	.st4{fill:#FE472F;}
	.st5{fill:#350F0C;}
	.st6{fill:#FEF9DB;}
	.st7{fill:#1A1A10;}
	.st8{opacity:0.75;fill:#DDAA2A;}
</style>
<rect x="-46.3" y="-23.7" class="st0" width="997.9" height="515.1"/>
<g>
	<ellipse class="st1" cx="451.2" cy="433" rx="104.3" ry="5.4"/>
	<g>
		<polygon class="st2" points="536.2,338.6 547.9,338.6 536.2,296.4 574.8,290.7 547.9,211.9 703.7,186.8 666.1,263.6 601.6,258.6 
			616.9,321.2 565.8,316.7 574.8,352.8 536.2,352.4 		"/>
		<polygon class="st3" points="536.2,338.6 547.9,338.6 541.1,314 548.4,326.1 554.5,322.3 561.1,328.7 567,321.7 574.8,352.8 
			536.2,352.4 		"/>
		<path class="st2" d="M509.2,420.2c-0.2,0-0.3,0-0.5,0c-8.7,0.1-15.5-0.8-21.2-2.2c-16.3-3.9-22.6-11.6-34.5-11.9
			c-1.1,0-2.1,0.1-3.1,0.2c-0.6,0.1-1.2,0.2-1.8,0.3c-10.3,2.2-17.5,9.8-35.9,12.5c-4.3,0.6-9.2,1-14.9,1c-2,0-3.8-0.1-5.6-0.4
			c-50.2-6.9-14.8-104.3-11-131.5c0.1-0.7,1-5.4,2.3-11.6c0.6-3,1.3-6.3,1.9-9.8c1.9-9.9,4-16.8,5.6-19.5c0-0.1-0.1-0.1-0.1-0.2
			c-8.2-10.1-10.9-16.4-11-23.6c-0.1-7.9,2.8-16.7,4.9-32.8c0.3-2.4,0.4-15.3,5.9-29.1c2.7-6.8,6.7-13.7,12.7-19.8
			c9.7-9.8,24.5-17.1,47.3-17.1c0.9,0,1.8,0,2.7,0c0.9,0,1.8,0,2.7,0c22.8,0,37.6,7.3,47.3,17.1c6,6,10,13,12.7,19.8
			c5.5,13.8,5.6,26.7,5.9,29.1c1.6,12.7,3.8,20.9,4.6,27.7c1.1,9.5-0.6,16.2-10.7,28.7c0,0-0.1,0.1-0.1,0.1
			c1.7,2.7,5.3,9.5,5.6,19.5c0.1,2.5,0.9,6.6,2,11.9c0,0,0,0,0,0c0,0,0,0,0,0.1c1.9,8.4,4.7,19.8,7.6,32.5c0,0.1,0,0.1,0,0.2
			c1.4,6.3,2.8,12.9,4,19.6c0,0,0,0,0,0c0.5,2.7,1,5.5,1.4,8.2c0.7,4.3,1.3,8.6,1.8,12.9C542.2,387.4,538.7,419.6,509.2,420.2z"/>
		
			<ellipse transform="matrix(0.9574 -0.2888 0.2888 0.9574 -49.8003 123.3466)" class="st4" cx="393.1" cy="230.4" rx="13.3" ry="18.4"/>
		<circle class="st5" cx="410.1" cy="199.6" r="11.8"/>
		<circle class="st6" cx="414.1" cy="195.9" r="5"/>
		
			<ellipse transform="matrix(0.9574 -0.2888 0.2888 0.9574 -49.8003 123.3466)" class="st4" cx="393.1" cy="230.4" rx="13.3" ry="18.4"/>
		<circle class="st5" cx="410.7" cy="198.5" r="11.8"/>
		<circle class="st6" cx="414.7" cy="194.8" r="5"/>
		
			<ellipse transform="matrix(0.2888 -0.9574 0.9574 0.2888 145.4725 655.7972)" class="st4" cx="514.2" cy="230" rx="18.4" ry="13.3"/>
		<circle class="st5" cx="496.5" cy="198.5" r="11.8"/>
		<circle class="st6" cx="492.5" cy="194.8" r="5"/>
		<path class="st5" d="M453.4,217.6c0.1,0.1,0.2,0.1,0.3,0l2.7-1.7l1.9-1.2c0.3-0.2,0.2-0.6-0.2-0.6l-4.7,0l-4.7,0
			c-0.3,0-0.4,0.4-0.2,0.6l1.9,1.2L453.4,217.6z"/>
		<g>
			<path class="st2" d="M299.3,78.9c-1-0.1-1.7,0.9-1.2,1.8c6,10.4,35,57.4,85.7,78.5c56.2,23.4,19.5-17,18.1-18.5
				c0,0-0.1-0.1-0.1-0.1C400.4,138.8,361.6,86.7,299.3,78.9z"/>
			<path class="st7" d="M299.3,78.9c-1-0.1-1.7,0.9-1.2,1.8c3.8,6.6,16.5,28,38.5,47.7c0,0-5.7-11.4-3.4-20.8
				c2-8.3,13.8-13.2,13.8-13.2C333.2,87.1,317.2,81.2,299.3,78.9z"/>
		</g>
		<g>
			<path class="st2" d="M606.8,78.9c1-0.1,1.7,0.9,1.2,1.8c-6,10.4-35,57.4-85.7,78.5c-56.2,23.4-19.5-17-18.1-18.5
				c0,0,0.1-0.1,0.1-0.1C505.7,138.8,544.5,86.7,606.8,78.9z"/>
			<path class="st7" d="M606.8,78.9c1-0.1,1.7,0.9,1.2,1.8c-3.8,6.6-16.5,28-38.5,47.7c0,0,5.7-11.4,3.4-20.8
				c-2-8.3-13.8-13.2-13.8-13.2C572.9,87.1,588.9,81.2,606.8,78.9z"/>
		</g>
		<path class="st2" d="M412.3,419.1C412.3,419.1,412.3,419.2,412.3,419.1c-2.1,2.9-5.5,6.1-9.8,8.9c-8.2,5.3-16.4,7.2-18.4,4.2
			c-1.6-2.5,1.6-7.6,7.5-12.3c0.1-0.1,0.1-0.1,0.2-0.2c1.1-0.9,2.3-1.8,3.6-2.6c8.2-5.3,16.4-7.2,18.4-4.2
			C414.7,414.4,414.1,416.6,412.3,419.1z"/>
		
			<ellipse transform="matrix(0.544 -0.8391 0.8391 0.544 -125.852 613.6037)" class="st2" cx="501.6" cy="422.6" rx="6.5" ry="17.7"/>
		<path class="st8" d="M384.7,269.8c0,0.6-0.2,1.4-0.4,2.3C384.5,271.2,384.6,270.5,384.7,269.8z"/>
		<path class="st8" d="M509.2,420.2c-0.2,0-0.3,0-0.5,0c-8.7,0.1-15.5-0.8-21.2-2.2c-16.3-3.9-22.6-11.6-34.5-11.9
			c-1.1,0-2.1,0.1-3.1,0.2c-0.6,0.1-1.2,0.2-1.8,0.3c-10.3,2.1-17.5,9.7-35.8,12.4c-4.3,0.7-9.2,1.1-14.9,1.1c-2,0-3.9-0.1-5.7-0.2
			c0.1-0.1,0.1-0.1,0.2-0.2c-50.2-6.9-14.8-104.3-11-131.5c0.1-0.7,1-5.4,2.3-11.6c0.6-1.8,1-3.3,1.3-4.6
			c-2.7,23.4,8.7,118.9,29.7,93.3c15-18.3,11.7-47.2,11.7-47.2s22.9,19.3,59,3.7c0,0,4.7,55.7,19.8,47c13.2-7.6,21.4-35.5,18.6-90
			c0,0,0,0,0,0.1c0.3,1.2,3.6,14.1,7.6,32.5c0,0.1,0,0.1,0,0.2c1.3,6,2.7,12.6,4,19.6c0,0,0,0,0,0c0.5,2.7,1,5.5,1.4,8.2
			c0.7,4.3,1.3,8.6,1.8,12.9C542.2,387.4,538.7,419.6,509.2,420.2z"/>
	</g>
	<path class="st8" d="M438.3,255.2c0,0,20.3,5.6,38.2,0C476.5,255.2,457.4,272.6,438.3,255.2z"/>
	<g>
		<path class="st5" d="M438.2,227.1c0.8,1.3,1.9,2.4,3.1,3c1.2,0.6,2.6,0.6,3.8,0c0.3-0.1,0.6-0.3,0.9-0.5l0.9-0.6
			c0.7-0.4,1.4-0.8,2.1-1.1c1.4-0.7,3-1.2,4.7-1.3c1.7-0.1,3.4,0.3,4.9,1.1c1.4,0.8,2.6,1.7,3.9,2.3c1.2,0.6,2.6,0.6,3.9,0.1
			c1.4-0.5,2.6-1.3,3.9-2.2c-1,1.2-2.1,2.3-3.5,3c-0.7,0.4-1.5,0.7-2.4,0.8c-0.9,0.1-1.7,0-2.5-0.3c-1.6-0.6-2.8-1.5-4.1-2.1
			c-1.3-0.6-2.6-0.9-3.9-0.8c-1.3,0.1-2.7,0.5-4,1.1c-0.7,0.3-1.3,0.6-2,1l-1,0.5c-0.4,0.2-0.8,0.3-1.2,0.5
			c-0.8,0.2-1.7,0.4-2.6,0.3c-0.9-0.1-1.7-0.5-2.4-1C439.4,230,438.6,228.5,438.2,227.1z"/>
	</g>
</g>
</svg>
