<?xml version="1.0" encoding="utf-8"?>
<!-- Generator: Adobe Illustrator 21.1.0, SVG Export Plug-In . SVG Version: 6.00 Build 0)  -->
<svg version="1.1" id="Layer_1" xmlns="http://www.w3.org/2000/svg" xmlns:xlink="http://www.w3.org/1999/xlink" x="0px" y="0px"
	 viewBox="0 0 635 212.5" style="enable-background:new 0 0 635 212.5;" xml:space="preserve">
<style type="text/css">
	.st0{fill:#FFFFFF;stroke:#282828;stroke-width:11;stroke-miterlimit:10;}
	.st1{fill:#9B103B;stroke:#282828;stroke-width:11;stroke-miterlimit:10;}
	.st2{fill:#FFFFFF;stroke:#282828;stroke-width:9;stroke-miterlimit:10;}
	.st3{fill:#E23361;stroke:#282828;stroke-width:11;stroke-miterlimit:10;}
	.st4{fill:#6AADDB;stroke:#282828;stroke-width:11;stroke-miterlimit:10;}
	.st5{fill:#F4E25B;stroke:#282828;stroke-width:11;stroke-miterlimit:10;}
</style>
<g>
	<g>
		<circle class="st0" cx="123.6" cy="106.2" r="70.8"/>
		<path class="st1" d="M194.4,106.2H52.8c0-39.1,31.7-70.8,70.8-70.8S194.4,67.1,194.4,106.2z"/>
		<circle class="st2" cx="123.6" cy="105.8" r="23.8"/>
		<circle class="st0" cx="123.6" cy="106.2" r="70.8"/>
		<path class="st3" d="M194.4,106.2H52.8c0-39.1,31.7-70.8,70.8-70.8S194.4,67.1,194.4,106.2z"/>
		<circle class="st2" cx="123.6" cy="105.8" r="23.8"/>
	</g>
	<g>
		<circle class="st0" cx="317.5" cy="106.2" r="70.8"/>
		<path class="st4" d="M388.3,106.2H246.7c0-39.1,31.7-70.8,70.8-70.8S388.3,67.1,388.3,106.2z"/>
		<circle class="st2" cx="317.5" cy="105.8" r="23.8"/>
	</g>
	<g>
		<circle class="st0" cx="511.4" cy="106.2" r="70.8"/>
		<path class="st5" d="M582.2,106.2H440.6c0-39.1,31.7-70.8,70.8-70.8S582.2,67.1,582.2,106.2z"/>
		<circle class="st2" cx="511.4" cy="105.8" r="23.8"/>
	</g>
</g>
</svg>
