<?xml version="1.0" encoding="utf-8"?>
<!-- Generator: Adobe Illustrator 21.0.2, SVG Export Plug-In . SVG Version: 6.00 Build 0)  -->
<svg version="1.1" id="Layer_1" xmlns="http://www.w3.org/2000/svg" xmlns:xlink="http://www.w3.org/1999/xlink" x="0px" y="0px"
	 viewBox="0 0 905.3 467.8" style="enable-background:new 0 0 905.3 467.8;" xml:space="preserve">
<style type="text/css">
	.st0{fill:#535370;}
	.st1{fill:#ADD5F2;}
	.st2{fill:#5286AF;}
	.st3{fill:#383529;}
	.st4{fill:#CED5DB;}
	.st5{fill:#181919;stroke:#EDBCD6;stroke-width:8;stroke-miterlimit:10;}
	.st6{fill:#E9E9E9;}
	.st7{fill:#181919;}
	.st8{fill:#353535;}
</style>
<rect x="-46.3" y="-23.7" class="st0" width="997.9" height="515.1"/>
<g>
	<path class="st1" d="M589.8,229.7c-14.2,38.1-45.3,61.7-56.1,57.6c-10.8-4-18.9-42.2-4.7-80.3c14.2-38.1,45.3-61.7,56.1-57.6
		C595.9,153.4,604,191.6,589.8,229.7z"/>
	<g>
		<path class="st2" d="M580.2,162.6c-1.9,8.8-4.4,17.3-7.1,25.8c-2.7,8.5-5.6,16.9-8.7,25.2c-3.1,8.3-6.4,16.6-9.9,24.7
			c-3.5,8.2-7.2,16.3-11.5,24.1c1.9-8.8,4.4-17.3,7.1-25.8c2.7-8.5,5.6-16.9,8.7-25.2c3.1-8.3,6.4-16.6,9.9-24.7
			C572.2,178.6,575.9,170.5,580.2,162.6z"/>
	</g>
	<ellipse class="st3" cx="455.5" cy="430.5" rx="93" ry="8.4"/>
	
		<ellipse transform="matrix(0.544 -0.8391 0.8391 0.544 -114.0837 617.4569)" class="st2" cx="511" cy="413.7" rx="11.5" ry="31.6"/>
	<path class="st2" d="M427.2,407.5c0,0.1-0.1,0.1-0.1,0.2c-3.6,5-9.8,10.7-17.4,15.7c-14.6,9.5-29.3,12.9-32.8,7.5
		c-2.9-4.5,2.9-13.5,13.4-21.9c0.1-0.1,0.2-0.2,0.3-0.3c2-1.6,4.2-3.2,6.5-4.7c14.6-9.5,29.3-12.9,32.8-7.5
		C431.5,399,430.4,403,427.2,407.5z"/>
	<path class="st2" d="M555.8,301.7c0,56.9-22,102.9-102.9,102.9c-79.9,0-102.9-46.1-102.9-102.9c0-37.7,46.1-102.9,102.9-102.9
		S555.8,260.4,555.8,301.7z"/>
	<ellipse class="st4" cx="451.6" cy="336.5" rx="82.2" ry="67.5"/>
	<ellipse class="st5" cx="452.9" cy="271.3" rx="14.9" ry="7.3"/>
	
		<ellipse transform="matrix(0.8391 -0.544 0.544 0.8391 -64.9871 262.7036)" class="st6" cx="411.6" cy="241.2" rx="26.8" ry="20.8"/>
	<path class="st7" d="M434.5,226.5c-5.4-8.3-19.4-10.8-29-4.6c-9.6,6.2-11.6,18.9-6.2,27.3c5.4,8.3,18.4,10.5,28,4.3
		S439.9,234.8,434.5,226.5z"/>
	<circle class="st6" cx="426.4" cy="231.6" r="7"/>
	<ellipse class="st8" cx="407.4" cy="239.8" rx="6.2" ry="8.2"/>
	
		<ellipse transform="matrix(0.544 -0.8391 0.8391 0.544 22.9972 524.7258)" class="st6" cx="494.3" cy="241.2" rx="20.8" ry="26.8"/>
	<path class="st7" d="M471.3,226.5c5.4-8.3,19.4-10.8,29-4.6c9.6,6.2,11.6,18.9,6.2,27.3c-5.4,8.3-18.4,10.5-28,4.3
		S465.9,234.8,471.3,226.5z"/>
	<circle class="st6" cx="479.4" cy="231.6" r="7"/>
	<ellipse class="st8" cx="498.4" cy="239.8" rx="6.2" ry="8.2"/>
	<g>
		<g>
			<path class="st8" d="M433.8,388.9c-19.1-2.8-35.5-18.8-37.8-38.2c-2.3-19.8,9.6-39.5,27-48.7c19.1-10.1,43.6-8,61.5,3.8
				c17.4,11.4,28.8,34.3,17.7,54.1c-6.1,10.9-18.1,17.6-30.1,19.8c-17.1,3-39.4-0.4-50.3-15.3c-7.1-9.6-9.2-21.6-2.4-31.7
				c6.2-9.2,15.3-15.8,26.7-16.2c9.7-0.3,21.2,2.2,27.9,9.7c8.2,9.1,7.8,22.8-0.8,31.5c-8.1,8.2-21.1,9.1-30.6,2.8
				c-5.3-3.5-10.4-10.5-8.3-17.1c1.7-5.4,7.7-8.1,13-8.3c5.7-0.3,14.6,2.9,14,10c-0.5,5.3-5.4,5-9.3,3.8c-3.7-1.1-5.3,4.7-1.6,5.8
				c8.5,2.5,17.7-1.1,16.8-11.3c-1.1-11.7-15.3-16.1-25.2-13.5c-11.2,3-17.2,13.9-12.2,24.8c5.1,11,18,17.2,29.8,15.9
				c11.5-1.2,21.2-9.2,25-20c3.9-11.2-0.4-24-9.5-31.5c-9.2-7.6-23.4-9.8-35-7.9c-12.4,2-23.4,12.3-28.7,23.4
				c-6.5,13.6,1,31,11.7,40.1c16.6,14,44.8,15.6,64,6.5c18.2-8.6,28.7-27.9,24.2-48c-5.7-25.8-32.5-41.9-57.5-43.4
				c-26.1-1.6-51.1,12.7-60.6,37.5c-8.9,23.2,0.8,49.6,22.4,61.8c5.1,2.9,10.8,4.8,16.6,5.7C436,395.3,437.6,389.5,433.8,388.9
				L433.8,388.9z"/>
		</g>
	</g>
</g>
</svg>
