<?xml version="1.0" encoding="utf-8"?>
<!-- Generator: Adobe Illustrator 21.0.2, SVG Export Plug-In . SVG Version: 6.00 Build 0)  -->
<svg version="1.1" id="Layer_1" xmlns="http://www.w3.org/2000/svg" xmlns:xlink="http://www.w3.org/1999/xlink" x="0px" y="0px"
	 viewBox="0 0 905.3 467.8" style="enable-background:new 0 0 905.3 467.8;" xml:space="preserve">
<style type="text/css">
	.st0{fill:#4D828E;}
	.st1{fill:#383529;}
	.st2{fill:#AE6A3F;}
	.st3{fill:#7B4335;stroke:#05001C;stroke-miterlimit:10;}
	.st4{fill:#7B4335;}
	.st5{fill:#CEA228;}
	.st6{fill:#E6BD30;}
	.st7{fill:#EC467B;}
	.st8{fill:#CB2C3F;}
	.st9{fill:#F49CD1;}
	.st10{fill:#F0D0DA;}
</style>
<rect x="-46.3" y="-23.7" class="st0" width="997.9" height="515.1"/>
<g>
	<ellipse class="st1" cx="449.4" cy="433.4" rx="152.7" ry="5.3"/>
	<g>
		<path class="st2" d="M580.9,431.2l-127.2-83.4c-0.1-0.1-0.2-0.1-0.4,0l-131.5,85.6c-0.4,0.2-0.8-0.1-0.7-0.5l41.3-151.4
			c0-0.1,0-0.3-0.1-0.3l-120.1-97c-1-0.8-0.5-2.5,0.8-2.5l154.2-7.4c0.1,0,0.2-0.1,0.3-0.2l55.1-144c0.5-1.3,2.3-1.3,2.8,0
			l54.6,144.1c0,0.1,0.2,0.2,0.3,0.2l150.6,7.7c2.5,0.1,3.6,3.3,1.6,4.9l-117.6,94.4c-0.1,0.1-0.1,0.2-0.1,0.3l39.5,146.9
			C584.9,430.7,582.7,432.3,580.9,431.2z"/>
		<circle class="st3" cx="453.8" cy="259.3" r="2.1"/>
		<path class="st4" d="M545.1,282.1l-87.9-24.1l123.5,172.1c0.2,0.3-0.1,0.7-0.4,0.5l-126.8-83c-0.1-0.1-0.1-0.2-0.1-0.3l-4.3-89.7
			L322.1,432.3c-0.3,0.3-0.8,0.1-0.7-0.3l41-150.5c0-0.1,0.1-0.2,0.2-0.2l83.8-31.5l-202.6-67.6c-0.3-0.1-0.3-0.6,0.1-0.6l153.4-7.4
			c0.1,0,0.2,0,0.3,0.1l56.3,71.5l1.2-215c0-0.4,0.5-0.5,0.6-0.1l54.3,143.4c0,0.1,0,0.2,0,0.3L459,251.4l202.1-64
			c0.3-0.1,0.6,0.3,0.3,0.6l-116.1,94C545.3,282.1,545.2,282.1,545.1,282.1z"/>
	</g>
	<g>
		<polygon class="st5" points="387.7,262.7 394.5,286.5 361.9,290.4 358,277 		"/>
		<polygon class="st5" points="441.1,319.4 465.8,319.5 460.5,352 446.5,351.9 		"/>
		
			<ellipse transform="matrix(1 -5.109383e-03 5.109383e-03 1 -1.2891 2.3004)" class="st6" cx="449.6" cy="253.4" rx="69.7" ry="69.7"/>
		<g>
			<ellipse transform="matrix(1 -5.109383e-03 5.109383e-03 1 -1.2917 2.3022)" class="st5" cx="449.9" cy="254" rx="44" ry="44"/>
			
				<ellipse transform="matrix(1 -5.109383e-03 5.109383e-03 1 -1.2878 2.3)" class="st7" cx="449.5" cy="253.2" rx="39.1" ry="39.1"/>
			<path class="st8" d="M459,257.9c-7.2,11.3-30.5,20.6-41.8,13.4c-11.3-7.2-7.1-29.1,0.1-40.4c7.2-11.3,25.6-21.1,36.9-13.9
				C465.6,224.2,466.2,246.6,459,257.9z"/>
			<path class="st9" d="M483.9,264.9c3.1,7-7.5,20.1-21.3,25.2c-3.6,1.3-12.4,2-15.5-1.9c-3.1-3.8-0.3-11.2,6.2-16.5
				C459.9,266.5,480.2,256.7,483.9,264.9z"/>
			<path class="st10" d="M414.7,235.8c-0.3,1.3-2.2,6.3,2.4,8.4c6.4,3,27.6-6,31.3-16.9c2.9-8.4-2.3-13.9-9.2-12
				C420.5,220.3,414.7,235.8,414.7,235.8z"/>
			
				<ellipse transform="matrix(1 -5.109383e-03 5.109383e-03 1 -1.2888 2.1529)" class="st10" cx="420.7" cy="253.3" rx="4.5" ry="4.5"/>
		</g>
		<polygon class="st6" points="385,230.3 381.7,249 359.2,240.9 361.1,230.4 		"/>
		<polygon class="st6" points="438.8,185.6 420.9,191.9 416.9,168.3 427,164.8 		"/>
		<polygon class="st6" points="504.3,214.4 491.1,200.9 510.7,187.3 518.2,194.9 		"/>
		<polygon class="st6" points="513.9,274 518.4,255.6 540.3,265.1 537.8,275.5 		"/>
		<polygon class="st6" points="475.7,315.3 492,305.7 500.6,327.9 491.4,333.4 		"/>
		<polygon class="st6" points="407.8,307 423.6,317.4 407.3,334.8 398.4,329 		"/>
	</g>
</g>
</svg>
